/* XPM */
static char *hoz[]={
"32 32 4 1",
". c None",
"# c #000000",
"b c #800000",
"a c #c0c0c0",
"................................",
"..........#######...............",
"........##aaaaaaa##.............",
".......#a#######aaa###..........",
"......###.......#aaaaa#.........",
".................#aaaaa#........",
"..................#aaaaa#.......",
"...................#aaaaa#......",
".......######.......#aaaaa#.....",
".....##aaaaaa#......#aaaaa#.....",
"...##aa########......#aaaaa#....",
"..#aaaa#.....#a#.....#aaaaa#....",
".#aaa##.......##.....#aaaaa#....",
".#aa#...............#aaaaaa#....",
"#aaa#...............#aaaaaa#....",
"#aaa#..............#aaaaaaa#....",
"#aaa#.............#aaaaaaaa#....",
"#aaa#............#aaaaaaaa#.....",
"#aaaa#..........#aaaaaaaa#......",
".##aa#..........#aaaaaaa#.......",
"...#aa###bb#####aaaaaa##........",
"....##aaa#############..........",
".....##aaaaa##b.................",
"......#######bb.................",
"......bbbbbb#bbb................",
".....bbbb...bbbb................",
"....bbbbb....bbbb...............",
"...bbbbbb.....bbb...............",
"..bbbbb........bbbb.............",
".bbbbb..........bbbb............",
".bbbb...........bbbb............",
"................................"};
