/* XPM */
static char * available_xpm[] = {
"16 16 149 2",
"  	c None",
". 	c #39434B",
"+ 	c #575E61",
"@ 	c #505355",
"# 	c #434546",
"$ 	c #3B3E41",
"% 	c #3F454B",
"& 	c #1E272F",
"* 	c #3A4044",
"= 	c #696C6F",
"- 	c #AFB8BE",
"; 	c #D9E5ED",
"> 	c #DCE9F1",
", 	c #CBDCE8",
"' 	c #C7D6E2",
") 	c #B6BFC5",
"! 	c #2E3235",
"~ 	c #11181D",
"{ 	c #373D40",
"] 	c #7E8589",
"^ 	c #D6E0E7",
"/ 	c #D5E4EC",
"( 	c #C7DCE9",
"_ 	c #C2D7E6",
": 	c #C4D8E4",
"< 	c #D8E4EC",
"[ 	c #D8E5EE",
"} 	c #C6D2DC",
"| 	c #434F57",
"1 	c #06090A",
"2 	c #29363F",
"3 	c #4A5054",
"4 	c #D2DEE5",
"5 	c #C8D9E4",
"6 	c #BED3E0",
"7 	c #BFD9E9",
"8 	c #BCD5E7",
"9 	c #BCD2E1",
"0 	c #C5D6E2",
"a 	c #C8D8E4",
"b 	c #CDDCE8",
"c 	c #A4B9C8",
"d 	c #1D2328",
"e 	c #404B54",
"f 	c #9BA8AF",
"g 	c #C0D1DD",
"h 	c #A1BDD1",
"i 	c #ABC8DB",
"j 	c #B2CFE2",
"k 	c #ACCADE",
"l 	c #BBD2E0",
"m 	c #C6D7E3",
"n 	c #AFC4D4",
"o 	c #ABBFCF",
"p 	c #ADC5D5",
"q 	c #5D707D",
"r 	c #000000",
"s 	c #343D43",
"t 	c #7D97AE",
"u 	c #809EB6",
"v 	c #8DADC5",
"w 	c #94B5CC",
"x 	c #97B8D0",
"y 	c #97B8CF",
"z 	c #CEDFEA",
"A 	c #C6D8E3",
"B 	c #BBD0DE",
"C 	c #AEC5D3",
"D 	c #9BB6C9",
"E 	c #7D98AB",
"F 	c #000001",
"G 	c #1D252D",
"H 	c #8BA7BD",
"I 	c #89A7BD",
"J 	c #81A3BB",
"K 	c #7B9FBB",
"L 	c #7FA3BF",
"M 	c #88AAC4",
"N 	c #C8DBE7",
"O 	c #BBD1DE",
"P 	c #AFC5D5",
"Q 	c #A5BECE",
"R 	c #90AABF",
"S 	c #4E6F8E",
"T 	c #0D1720",
"U 	c #4C7091",
"V 	c #9DB6C9",
"W 	c #ADC5D6",
"X 	c #84A4BC",
"Y 	c #6188A7",
"Z 	c #5881A2",
"` 	c #7D9CB5",
" .	c #7D9AB1",
"..	c #A7BFD1",
"+.	c #9FB7CA",
"@.	c #809CB2",
"#.	c #2F5172",
"$.	c #496C8B",
"%.	c #99B2C6",
"&.	c #A9C1D1",
"*.	c #AAC2D2",
"=.	c #81A0B7",
"-.	c #4D7595",
";.	c #4A7090",
">.	c #3E6386",
",.	c #A1B8CA",
"'.	c #99B4C8",
").	c #5E7D97",
"!.	c #183655",
"~.	c #050A0E",
"{.	c #1C354C",
"].	c #62829B",
"^.	c #9DB7CA",
"/.	c #A2BCCD",
"(.	c #5B7A95",
"_.	c #3E6484",
":.	c #3E6383",
"<.	c #2F5577",
"[.	c #8DA8BB",
"}.	c #92B0C4",
"|.	c #3E5D79",
"1.	c #06111C",
"2.	c #070D14",
"3.	c #294968",
"4.	c #9BB6CA",
"5.	c #8EA7BC",
"6.	c #335573",
"7.	c #335878",
"8.	c #325676",
"9.	c #284C6D",
"0.	c #7997AF",
"a.	c #81A1B9",
"b.	c #0A1F35",
"c.	c #060D14",
"d.	c #698699",
"e.	c #44627F",
"f.	c #204264",
"g.	c #254666",
"h.	c #234463",
"i.	c #1D3E60",
"j.	c #2D4C67",
"k.	c #182A3C",
"l.	c #070A0C",
"m.	c #0D1E2F",
"n.	c #163351",
"o.	c #1A3D5F",
"p.	c #183858",
"q.	c #102A44",
"r.	c #030C13",
"                                ",
"        . + @ # $ % &           ",
"      * = - ; > , ' ) ! ~       ",
"    { ] ^ / ( _ : < [ } | 1     ",
"  2 3 4 5 6 7 8 9 0 a b c d     ",
"  e f g h i j k l m n o p q r   ",
"  s t u v w x y z A B C D E F   ",
"  G H I J K L M N O P Q R S F   ",
"  T U V W X Y Z `  ...+.@.#.r   ",
"  T $.%.&.*.=.-.;.>.,.'.).!.r   ",
"  ~.{.].^./.(._.:.<.[.}.|.1.r   ",
"    2.3.4.5.6.7.8.9.0.a.b.F     ",
"    r c.d.e.f.g.h.i.j.k.r r     ",
"      r l.m.n.o.p.q.r.r r       ",
"          r r r r r r           ",
"                                "};
